#!OML:ASF E:\acrobat2\Project_11_07_03\Capture day 1\Session 1\Acrobat.ASF
:FULLY-SPECIFIED
:DEGREES
370
root 10.2169 13.4766 16.744 -63.9107 -1.04132 181.7
lowerback 44.7563 0.029956 1.04907
upperback 18.4429 2.52611 -2.79258
thorax 0.0281487 1.04745 -4.39846
lowerneck -1.05102 -2.70566 2.26258
upperneck 23.771 -4.39582 0.904289
head 7.43221 -1.47056 -0.328691
rclavicle -8.69683e-015 -2.54444e-014
rhumerus 60.3207 -16.9504 -75.3942
rradius 90.4505
rwrist 13.0201
rhand -41.2376 -86.4315
rfingers 7.12502
rthumb -14.1606 115.929
lclavicle -8.69683e-015 -2.54444e-014
lhumerus 70.7089 1.761 67.041
lradius 92.1938
lwrist -1.37631
lhand -59.5199 -62.9667
lfingers 7.12502
lthumb -31.6947 -35.7
rfemur -49.7214 9.0064 -42.6419
rtibia 1.26302
rfoot -40.66 -32.3811
rtoes 35.2476
lfemur -43.3739 12.6889 17.9907
ltibia 0.995084
lfoot -20.1905 10.3452
ltoes 56.7912
371
root 10.2283 13.3705 16.418 -62.0931 -1.21126 181.93
lowerback 44.4735 0.280599 0.939633
upperback 18.625 2.68327 -2.87138
thorax 0.316243 1.05257 -4.47533
lowerneck -1.28967 -2.729 2.33853
upperneck 23.8887 -4.40725 0.881376
head 7.51124 -1.45377 -0.353081
rclavicle -9.7156e-015 1.19271e-014
rhumerus 60.3761 -17.2164 -75.7563
rradius 91.3802
rwrist 13.1309
rhand -41.2188 -86.5728
rfingers 7.12502
rthumb -14.1425 116.071
lclavicle -9.7156e-015 1.19271e-014
lhumerus 71.045 1.5978 67.1316
lradius 93.0835
lwrist -1.86208
lhand -59.5766 -64.1652
lfingers 7.12502
lthumb -31.7487 -36.9092
rfemur -50.1203 9.88843 -43.855
rtibia 0.819923
rfoot -43.3639 -32.7529
rtoes 36.6965
lfemur -42.9798 12.3022 18.7856
ltibia 0.905813
lfoot -19.7486 12.3008
ltoes 56.6369
372
root 10.2383 13.2545 16.0932 -60.2516 -1.41753 182.184
lowerback 44.192 0.538783 0.841456
upperback 18.773 2.84493 -2.94474
thorax 0.567028 1.06028 -4.55366
lowerneck -1.51638 -2.77754 2.31701
upperneck 23.9453 -4.45534 0.918395
head 7.57123 -1.46074 -0.343436
rclavicle -2.39039e-014 2.46493e-014
rhumerus 60.4295 -17.4381 -76.0831
rradius 92.2762
rwrist 13.2665
rhand -41.1189 -86.6972
rfingers 7.12502
rthumb -14.0462 116.203
lclavicle -2.39039e-014 2.46493e-014
lhumerus 71.2911 1.51514 67.1496
lradius 93.9353
lwrist -2.23397
lhand -59.6443 -65.3806
lfingers 7.12502
lthumb -31.8132 -38.1373
rfemur -50.5478 10.7042 -45.0391
rtibia 0.400877
rfoot -46.2823 -32.9738
rtoes 38.0868
lfemur -42.5136 11.9325 19.5638
ltibia 0.644277
lfoot -19.2061 14.2161
ltoes 56.5404
373
root 10.246 13.1301 15.7702 -58.3213 -1.64995 182.408
lowerback 43.8326 0.769257 0.797664
upperback 18.8852 2.98418 -3.01392
thorax 0.797432 1.06401 -4.64573
lowerneck -1.6672 -2.8301 2.27488
upperneck 23.9608 -4.5013 0.947165
head 7.6043 -1.47099 -0.331301
rclavicle 7.45443e-015 -1.90833e-014
rhumerus 60.475 -17.6185 -76.3999
rradius 93.1838
rwrist 13.4426
rhand -40.9476 -86.8197
rfingers 7.12502
rthumb -13.8811 116.336
lclavicle 7.45443e-015 -1.90833e-014
lhumerus 71.4214 1.53035 67.0862
lradius 94.7705
lwrist -2.49311
lhand -59.7207 -66.6666
lfingers 7.12502
lthumb -31.886 -39.4378
rfemur -51.0033 11.3944 -46.2338
rtibia 0.0162653
rfoot -49.3494 -33.0397
rtoes 39.4273
lfemur -42.1148 11.6013 20.3335
ltibia 0.312354
lfoot -18.9023 15.6848
ltoes 56.5003
374
root 10.2506 12.9989 15.4496 -56.2557 -1.87992 182.556
lowerback 43.3397 0.942683 0.830582
upperback 18.9654 3.07528 -3.07558
thorax 1.02563 1.05573 -4.74933
lowerneck -1.77247 -2.87553 2.15097
upperneck 23.8453 -4.54863 1.10657
head 7.59091 -1.48451 -0.261455
rclavicle 5.56597e-015 -1.59028e-015
rhumerus 60.5225 -17.7269 -76.7285
rradius 94.0485
rwrist 13.699
rhand -40.7686 -86.921
rfingers 7.12502
rthumb -13.7086 116.449
lclavicle 5.56597e-015 -1.59028e-015
lhumerus 71.4338 1.63729 66.9542
lradius 95.5952
lwrist -2.68474
lhand -59.8145 -68.0772
lfingers 7.12502
lthumb -31.9752 -40.8662
rfemur -51.4617 11.8954 -47.4648
rtibia -0.328174
rfoot -52.4339 -32.9763
rtoes 40.6704
lfemur -41.9009 11.3128 21.0877
ltibia -0.00677083
lfoot -19.1567 16.452
ltoes 56.4725
375
root 10.2521 12.8614 15.1316 -54.0841 -2.07927 182.617
lowerback 42.7451 1.0514 0.94617
upperback 19.0078 3.11155 -3.13488
thorax 1.23851 1.03409 -4.87202
lowerneck -1.77754 -2.88194 2.14404
upperneck 23.6705 -4.52475 1.16092
head 7.53501 -1.46766 -0.239023
rclavicle 4.53229e-014 -4.53229e-014
rhumerus 60.5441 -17.7924 -77.0545
rradius 94.8758
rwrist 14.0114
rhand -40.6288 -86.9909
rfingers 7.12502
rthumb -13.5739 116.528
lclavicle 4.53229e-014 -4.53229e-014
lhumerus 71.3511 1.77735 66.7725
lradius 96.3786
lwrist -2.86986
lhand -59.9332 -69.5901
lfingers 7.12502
lthumb -32.0883 -42.4019
rfemur -51.817 12.0277 -48.4834
rtibia -0.601012
rfoot -55.0077 -32.8443
rtoes 41.7161
lfemur -41.8761 11.0356 21.8169
ltibia -0.276188
lfoot -20.0991 16.4411
ltoes 56.4009
376
root 10.2515 12.7174 14.8168 -51.8707 -2.22434 182.614
lowerback 42.1032 1.10922 1.11735
upperback 19.0223 3.10276 -3.20174
thorax 1.43456 1.00147 -5.0157
lowerneck -1.64846 -2.8712 2.25606
upperneck 23.5341 -4.46358 1.11115
head 7.46319 -1.42869 -0.265617
rclavicle -3.35946e-014 1.03368e-014
rhumerus 60.5325 -17.8357 -77.3757
rradius 95.6486
rwrist 14.3547
rhand -40.5787 -87.0335
rfingers 7.12502
rthumb -13.5256 116.574
lclavicle -3.35946e-014 1.03368e-014
lhumerus 71.2238 1.90646 66.5585
lradius 97.0885
lwrist -3.08543
lhand -60.0728 -71.1971
lfingers 7.12502
lthumb -32.2212 -44.0357
rfemur -52.0735 12.021 -49.5054
rtibia -0.853431
rfoot -57.26 -32.7672
rtoes 42.5489
lfemur -41.9765 10.7332 22.5043
ltibia -0.493359
lfoot -21.6687 15.6652
ltoes 56.2549
377
root 10.2503 12.5672 14.5055 -49.6457 -2.3191 182.568
lowerback 41.4337 1.13562 1.3102
upperback 19.0319 3.06493 -3.26731
thorax 1.63553 0.96066 -5.15977
lowerneck -1.51625 -2.83928 2.49741
upperneck 23.491 -4.35235 0.877778
head 7.41487 -1.36689 -0.371007
rclavicle -3.24019e-014 1.90833e-014
rhumerus 60.5151 -17.8676 -77.6812
rradius 96.3652
rwrist 14.6978
rhand -40.6258 -87.0777
rfingers 7.12502
rthumb -13.571 116.615
lclavicle -3.24019e-014 1.90833e-014
lhumerus 71.1183 2.02371 66.3463
lradius 97.7065
lwrist -3.34901
lhand -60.2205 -72.9415
lfingers 7.12502
lthumb -32.3617 -45.8088
rfemur -52.2311 11.9544 -50.5493
rtibia -1.10211
rfoot -59.212 -32.7197
rtoes 43.2571
lfemur -42.1584 10.4075 23.1612
ltibia -0.665327
lfoot -23.6512 14.2069
ltoes 56.0663
378
root 10.25 12.4111 14.198 -47.4295 -2.3794 182.509
lowerback 40.6359 1.152 1.49463
upperback 19.1749 3.02915 -3.32561
thorax 1.85616 0.917396 -5.28743
lowerneck -1.61893 -2.8376 2.96545
upperneck 23.7606 -4.26141 0.311372
head 7.499 -1.30971 -0.630566
rclavicle 2.38542e-014 -5.56597e-015
rhumerus 60.5236 -17.9085 -77.965
rradius 97.0591
rwrist 15.0269
rhand -40.6871 -87.1788
rfingers 7.12502
rthumb -13.63 116.713
lclavicle 2.38542e-014 -5.56597e-015
lhumerus 71.0664 2.14831 66.1566
lradius 98.2595
lwrist -3.63849
lhand -60.3704 -74.728
lfingers 7.12502
lthumb -32.5044 -47.6246
rfemur -52.3087 11.8711 -51.5998
rtibia -1.34437
rfoot -60.8794 -32.6186
rtoes 43.9258
lfemur -42.3693 10.0805 23.8014
ltibia -0.810179
lfoot -25.8127 12.2203
ltoes 55.9072
379
root 10.2515 12.2493 13.8944 -45.2371 -2.42291 182.456
lowerback 39.971 1.18422 1.63701
upperback 19.2209 2.98971 -3.37234
thorax 2.09914 0.872815 -5.38701
lowerneck -2.12936 -2.96 3.43517
upperneck 24.3858 -4.32614 -0.52278
head 7.76476 -1.33528 -1.00042
rclavicle 1.17283e-014 -2.78299e-014
rhumerus 60.5756 -17.9382 -78.2378
rradius 97.732
rwrist 15.358
rhand -40.7135 -87.328
rfingers 7.12502
rthumb -13.6555 116.86
lclavicle 1.17283e-014 -2.78299e-014
lhumerus 71.0464 2.31132 66.003
lradius 98.8076
lwrist -3.9126
lhand -60.4894 -76.5193
lfingers 7.12502
lthumb -32.6176 -49.4391
rfemur -52.3332 11.7989 -52.6559
rtibia -1.57701
rfoot -62.2791 -32.4556
rtoes 44.5182
lfemur -42.5612 9.76773 24.4353
ltibia -0.954233
lfoot -27.9655 9.93539
ltoes 55.8009
380
root 10.2552 12.0825 13.5938 -43.0693 -2.46966 182.412
lowerback 39.3388 1.23258 1.73776
upperback 19.2855 2.95979 -3.40529
thorax 2.35717 0.827604 -5.45496
lowerneck -2.93951 -3.16827 3.80947
upperneck 25.2217 -4.52039 -1.38373
head 8.15412 -1.42649 -1.3859
rclavicle 9.93923e-016 4.77083e-015
rhumerus 60.6824 -17.9362 -78.5148
rradius 98.3317
rwrist 15.7105
rhand -40.6962 -87.4357
rfingers 7.12502
rthumb -13.6388 116.969
lclavicle 9.93923e-016 4.77083e-015
lhumerus 71.0644 2.50776 65.8999
lradius 99.3519
lwrist -4.16245
lhand -60.5513 -78.3379
lfingers 7.12502
lthumb -32.6765 -51.27
rfemur -52.324 11.7392 -53.7079
rtibia -1.81002
rfoot -63.3973 -32.3256
rtoes 44.9349
lfemur -42.7133 9.48432 25.0804
ltibia -1.11128
lfoot -29.9894 7.65026
ltoes 55.7369
381
root 10.2609 11.9116 13.2959 -40.9068 -2.51883 182.36
lowerback 38.7237 1.29091 1.81153
upperback 19.3652 2.9361 -3.42447
thorax 2.63057 0.781608 -5.49742
lowerneck -3.91881 -3.44093 4.01627
upperneck 26.0632 -4.82464 -2.11668
head 8.58271 -1.5771 -1.72154
rclavicle 9.54166e-015 5.56597e-015
rhumerus 60.8338 -17.9225 -78.7813
rradius 98.9131
rwrist 16.0569
rhand -40.6411 -87.4796
rfingers 7.12502
rthumb -13.5857 117.016
lclavicle 9.54166e-015 5.56597e-015
lhumerus 71.1308 2.80984 65.8314
lradius 99.8928
lwrist -4.28783
lhand -60.5234 -80.1447
lfingers 7.12502
lthumb -32.65 -53.0713
rfemur -52.2934 11.6977 -54.7318
rtibia -2.00275
rfoot -64.2791 -32.1567
rtoes 45.2429
lfemur -42.8517 9.24494 25.7491
ltibia -1.26841
lfoot -31.8428 5.59514
ltoes 55.6776
382
root 10.2678 11.738 13.0005 -38.6997 -2.55642 182.269
lowerback 38.0743 1.34035 1.90475
upperback 19.4545 2.90918 -3.4334
thorax 2.92953 0.736256 -5.53855
lowerneck -4.89284 -3.71246 4.1124
upperneck 26.7165 -5.15173 -2.65082
head 8.95665 -1.74264 -1.97969
rclavicle 1.19271e-015 7.95139e-015
rhumerus 61.0202 -17.9439 -79.047
rradius 99.4408
rwrist 16.3619
rhand -40.5946 -87.4496
rfingers 7.12502
rthumb -13.541 116.989
lclavicle 1.19271e-015 7.95139e-015
lhumerus 71.3505 3.20223 65.7868
lradius 100.337
lwrist -4.25773
lhand -60.3866 -81.8396
lfingers 7.12502
lthumb -32.5198 -54.7393
rfemur -52.2515 11.6176 -55.7089
rtibia -2.11042
rfoot -64.965 -31.9286
rtoes 45.4439
lfemur -43.0503 9.07728 26.4562
ltibia -1.40236
lfoot -33.5032 3.89974
ltoes 55.553
383
root 10.275 11.5619 12.7073 -36.4515 -2.56856 182.138
lowerback 37.4169 1.37433 2.03097
upperback 19.5325 2.87083 -3.44168
thorax 3.22314 0.689802 -5.59384
lowerneck -5.69431 -3.91711 4.17713
upperneck 27.0601 -5.41806 -2.93029
head 9.20436 -1.87382 -2.13691
rclavicle 2.3059e-014 -3.57812e-014
rhumerus 61.2005 -18.0379 -79.2996
rradius 99.9398
rwrist 16.5812
rhand -40.5674 -87.3937
rfingers 7.12502
rthumb -13.5147 116.935
lclavicle 2.3059e-014 -3.57812e-014
lhumerus 71.6701 3.64674 65.755
lradius 100.713
lwrist -4.09405
lhand -60.1714 -83.3599
lfingers 7.12502
lthumb -32.315 -56.2176
rfemur -52.1608 11.4788 -56.6534
rtibia -2.19303
rfoot -65.453 -31.8158
rtoes 45.4425
lfemur -43.313 8.96895 27.1899
ltibia -1.51434
lfoot -34.9512 2.62697
ltoes 55.3371
